{
	"asset":{
		"copyright":"thms",
		"generator":"Khronos glTF Blender I/O v4.0.44",
		"version":"2.0"
	},
	"scene":0,
	"scenes":[
		{
			"name":"Scene",
			"nodes":[
				0,
				1,
				2,
				3,
				4,
				5,
				6,
				7,
				8,
				9,
				10,
				11,
				12,
				13,
				14
			]
		}
	],
	"nodes":[
		{
			"mesh":0,
			"name":"fullLogo",
			"scale":[
				21.332765579223633,
				21.332765579223633,
				21.332765579223633
			]
		},
		{
			"mesh":1,
			"name":"fullLogo-2",
			"scale":[
				21.332765579223633,
				21.332765579223633,
				21.332765579223633
			]
		},
		{
			"mesh":2,
			"name":"fullLogo-3",
			"scale":[
				21.332765579223633,
				21.332765579223633,
				21.332765579223633
			]
		},
		{
			"mesh":3,
			"name":"fullLogo-4",
			"scale":[
				21.332765579223633,
				21.332765579223633,
				21.332765579223633
			]
		},
		{
			"mesh":4,
			"name":"fullLogo-5",
			"scale":[
				21.332765579223633,
				21.332765579223633,
				21.332765579223633
			]
		},
		{
			"mesh":5,
			"name":"fullLogo-6",
			"scale":[
				21.332765579223633,
				21.332765579223633,
				21.332765579223633
			]
		},
		{
			"mesh":6,
			"name":"fullLogo-7",
			"scale":[
				21.332765579223633,
				21.332765579223633,
				21.332765579223633
			]
		},
		{
			"mesh":7,
			"name":"fullLogo-8",
			"scale":[
				21.332765579223633,
				21.332765579223633,
				21.332765579223633
			]
		},
		{
			"mesh":8,
			"name":"fullLogo-9",
			"scale":[
				21.332765579223633,
				21.332765579223633,
				21.332765579223633
			]
		},
		{
			"mesh":9,
			"name":"fullLogo-10",
			"scale":[
				21.332765579223633,
				21.332765579223633,
				21.332765579223633
			]
		},
		{
			"mesh":10,
			"name":"fullLogo-11",
			"scale":[
				21.332765579223633,
				21.332765579223633,
				21.332765579223633
			]
		},
		{
			"mesh":11,
			"name":"fullLogo-12",
			"scale":[
				21.332765579223633,
				21.332765579223633,
				21.332765579223633
			]
		},
		{
			"mesh":12,
			"name":"fullLogo-13",
			"scale":[
				21.332765579223633,
				21.332765579223633,
				21.332765579223633
			]
		},
		{
			"mesh":13,
			"name":"fullLogo-14",
			"scale":[
				21.332765579223633,
				21.332765579223633,
				21.332765579223633
			]
		},
		{
			"mesh":14,
			"name":"fullLogo-15",
			"scale":[
				21.332765579223633,
				21.332765579223633,
				21.332765579223633
			]
		}
	],
	"materials":[
		{
			"doubleSided":true,
			"name":"SVGMat.001",
			"pbrMetallicRoughness":{
				"baseColorFactor":[
					0.6653872728347778,
					0.2961382567882538,
					0.022173885256052017,
					1
				],
				"metallicFactor":0,
				"roughnessFactor":0.4000000059604645
			}
		},
		{
			"doubleSided":true,
			"name":"SVGMat.002",
			"pbrMetallicRoughness":{
				"baseColorFactor":[
					0.6653872728347778,
					0.2961382567882538,
					0.022173885256052017,
					1
				],
				"metallicFactor":0,
				"roughnessFactor":0.4000000059604645
			}
		},
		{
			"doubleSided":true,
			"name":"SVGMat.003",
			"pbrMetallicRoughness":{
				"baseColorFactor":[
					0.7379103899002075,
					0.3277781009674072,
					0.17464740574359894,
					1
				],
				"metallicFactor":0,
				"roughnessFactor":0.4000000059604645
			}
		},
		{
			"doubleSided":true,
			"name":"SVGMat.004",
			"pbrMetallicRoughness":{
				"baseColorFactor":[
					0.7379103899002075,
					0.3277781009674072,
					0.17464740574359894,
					1
				],
				"metallicFactor":0,
				"roughnessFactor":0.4000000059604645
			}
		},
		{
			"doubleSided":true,
			"name":"SVGMat.005",
			"pbrMetallicRoughness":{
				"baseColorFactor":[
					0.7379103899002075,
					0.3277781009674072,
					0.17464740574359894,
					1
				],
				"metallicFactor":0,
				"roughnessFactor":0.4000000059604645
			}
		},
		{
			"doubleSided":true,
			"name":"SVGMat.006",
			"pbrMetallicRoughness":{
				"baseColorFactor":[
					0.7379103899002075,
					0.3277781009674072,
					0.17464740574359894,
					1
				],
				"metallicFactor":0,
				"roughnessFactor":0.4000000059604645
			}
		},
		{
			"doubleSided":true,
			"name":"SVGMat.007",
			"pbrMetallicRoughness":{
				"baseColorFactor":[
					0.43965718150138855,
					0.09758734703063965,
					0.026241222396492958,
					1
				],
				"metallicFactor":0,
				"roughnessFactor":0.4000000059604645
			}
		},
		{
			"doubleSided":true,
			"name":"SVGMat.008",
			"pbrMetallicRoughness":{
				"baseColorFactor":[
					0.43965718150138855,
					0.09758734703063965,
					0.026241222396492958,
					1
				],
				"metallicFactor":0,
				"roughnessFactor":0.4000000059604645
			}
		},
		{
			"doubleSided":true,
			"name":"SVGMat.009",
			"pbrMetallicRoughness":{
				"baseColorFactor":[
					0.43965718150138855,
					0.09758734703063965,
					0.026241222396492958,
					1
				],
				"metallicFactor":0,
				"roughnessFactor":0.4000000059604645
			}
		},
		{
			"doubleSided":true,
			"name":"SVGMat.010",
			"pbrMetallicRoughness":{
				"baseColorFactor":[
					0.43965718150138855,
					0.09758734703063965,
					0.026241222396492958,
					1
				],
				"metallicFactor":0,
				"roughnessFactor":0.4000000059604645
			}
		},
		{
			"doubleSided":true,
			"name":"SVGMat.011",
			"pbrMetallicRoughness":{
				"baseColorFactor":[
					0.43965718150138855,
					0.09758734703063965,
					0.026241222396492958,
					1
				],
				"metallicFactor":0,
				"roughnessFactor":0.4000000059604645
			}
		},
		{
			"doubleSided":true,
			"name":"SVGMat.012",
			"pbrMetallicRoughness":{
				"baseColorFactor":[
					0.43965718150138855,
					0.09758734703063965,
					0.026241222396492958,
					1
				],
				"metallicFactor":0,
				"roughnessFactor":0.4000000059604645
			}
		},
		{
			"doubleSided":true,
			"name":"SVGMat.013",
			"pbrMetallicRoughness":{
				"baseColorFactor":[
					0.43965718150138855,
					0.09758734703063965,
					0.026241222396492958,
					1
				],
				"metallicFactor":0,
				"roughnessFactor":0.4000000059604645
			}
		},
		{
			"doubleSided":true,
			"name":"SVGMat.014",
			"pbrMetallicRoughness":{
				"baseColorFactor":[
					0.43965718150138855,
					0.09758734703063965,
					0.026241222396492958,
					1
				],
				"metallicFactor":0,
				"roughnessFactor":0.4000000059604645
			}
		},
		{
			"doubleSided":true,
			"name":"SVGMat.015",
			"pbrMetallicRoughness":{
				"baseColorFactor":[
					0.6653872728347778,
					0.2961382567882538,
					0.022173885256052017,
					1
				],
				"metallicFactor":0,
				"roughnessFactor":0.4000000059604645
			}
		}
	],
	"meshes":[
		{
			"name":"fullLogo",
			"primitives":[
				{
					"attributes":{
						"POSITION":0,
						"NORMAL":1,
						"TEXCOORD_0":2
					},
					"indices":3,
					"material":0
				}
			]
		},
		{
			"name":"fullLogo-2",
			"primitives":[
				{
					"attributes":{
						"POSITION":4,
						"NORMAL":5,
						"TEXCOORD_0":6
					},
					"indices":7,
					"material":1
				}
			]
		},
		{
			"name":"fullLogo-3",
			"primitives":[
				{
					"attributes":{
						"POSITION":8,
						"NORMAL":9,
						"TEXCOORD_0":10
					},
					"indices":11,
					"material":2
				}
			]
		},
		{
			"name":"fullLogo-4",
			"primitives":[
				{
					"attributes":{
						"POSITION":12,
						"NORMAL":13,
						"TEXCOORD_0":14
					},
					"indices":15,
					"material":3
				}
			]
		},
		{
			"name":"fullLogo-5",
			"primitives":[
				{
					"attributes":{
						"POSITION":16,
						"NORMAL":17,
						"TEXCOORD_0":18
					},
					"indices":19,
					"material":4
				}
			]
		},
		{
			"name":"fullLogo-6",
			"primitives":[
				{
					"attributes":{
						"POSITION":20,
						"NORMAL":21,
						"TEXCOORD_0":22
					},
					"indices":23,
					"material":5
				}
			]
		},
		{
			"name":"fullLogo-7",
			"primitives":[
				{
					"attributes":{
						"POSITION":24,
						"NORMAL":25,
						"TEXCOORD_0":26
					},
					"indices":27,
					"material":6
				}
			]
		},
		{
			"name":"fullLogo-8",
			"primitives":[
				{
					"attributes":{
						"POSITION":28,
						"NORMAL":29,
						"TEXCOORD_0":30
					},
					"indices":31,
					"material":7
				}
			]
		},
		{
			"name":"fullLogo-9",
			"primitives":[
				{
					"attributes":{
						"POSITION":32,
						"NORMAL":33,
						"TEXCOORD_0":34
					},
					"indices":35,
					"material":8
				}
			]
		},
		{
			"name":"fullLogo-10",
			"primitives":[
				{
					"attributes":{
						"POSITION":36,
						"NORMAL":37,
						"TEXCOORD_0":38
					},
					"indices":39,
					"material":9
				}
			]
		},
		{
			"name":"fullLogo-11",
			"primitives":[
				{
					"attributes":{
						"POSITION":40,
						"NORMAL":41,
						"TEXCOORD_0":42
					},
					"indices":43,
					"material":10
				}
			]
		},
		{
			"name":"fullLogo-12",
			"primitives":[
				{
					"attributes":{
						"POSITION":44,
						"NORMAL":45,
						"TEXCOORD_0":46
					},
					"indices":47,
					"material":11
				}
			]
		},
		{
			"name":"fullLogo-13",
			"primitives":[
				{
					"attributes":{
						"POSITION":48,
						"NORMAL":49,
						"TEXCOORD_0":50
					},
					"indices":51,
					"material":12
				}
			]
		},
		{
			"name":"fullLogo-14",
			"primitives":[
				{
					"attributes":{
						"POSITION":52,
						"NORMAL":53,
						"TEXCOORD_0":54
					},
					"indices":55,
					"material":13
				}
			]
		},
		{
			"name":"fullLogo-15",
			"primitives":[
				{
					"attributes":{
						"POSITION":56,
						"NORMAL":57,
						"TEXCOORD_0":58
					},
					"indices":59,
					"material":14
				}
			]
		}
	],
	"accessors":[
		{
			"bufferView":0,
			"componentType":5126,
			"count":2272,
			"max":[
				0.18420569598674774,
				0,
				-0.04568631201982498
			],
			"min":[
				0.15824151039123535,
				-0.019999999552965164,
				-0.09288370609283447
			],
			"type":"VEC3"
		},
		{
			"bufferView":1,
			"componentType":5126,
			"count":2272,
			"type":"VEC3"
		},
		{
			"bufferView":2,
			"componentType":5126,
			"count":2272,
			"type":"VEC2"
		},
		{
			"bufferView":3,
			"componentType":5123,
			"count":4464,
			"type":"SCALAR"
		},
		{
			"bufferView":4,
			"componentType":5126,
			"count":2444,
			"max":[
				0.21900342404842377,
				0,
				-0.060967039316892624
			],
			"min":[
				0.18866360187530518,
				-0.019999999552965164,
				-0.09294132888317108
			],
			"type":"VEC3"
		},
		{
			"bufferView":5,
			"componentType":5126,
			"count":2444,
			"type":"VEC3"
		},
		{
			"bufferView":6,
			"componentType":5126,
			"count":2444,
			"type":"VEC2"
		},
		{
			"bufferView":7,
			"componentType":5123,
			"count":4920,
			"type":"SCALAR"
		},
		{
			"bufferView":8,
			"componentType":5126,
			"count":2156,
			"max":[
				0.05494549870491028,
				0,
				-0.06166592612862587
			],
			"min":[
				0.025624370202422142,
				-0.019999999552965164,
				-0.09358260780572891
			],
			"type":"VEC3"
		},
		{
			"bufferView":9,
			"componentType":5126,
			"count":2156,
			"type":"VEC3"
		},
		{
			"bufferView":10,
			"componentType":5126,
			"count":2156,
			"type":"VEC2"
		},
		{
			"bufferView":11,
			"componentType":5123,
			"count":4320,
			"type":"SCALAR"
		},
		{
			"bufferView":12,
			"componentType":5126,
			"count":2535,
			"max":[
				0.0896424949169159,
				0,
				-0.060929153114557266
			],
			"min":[
				0.05698283761739731,
				-0.019999999552965164,
				-0.09358338266611099
			],
			"type":"VEC3"
		},
		{
			"bufferView":13,
			"componentType":5126,
			"count":2535,
			"type":"VEC3"
		},
		{
			"bufferView":14,
			"componentType":5126,
			"count":2535,
			"type":"VEC2"
		},
		{
			"bufferView":15,
			"componentType":5123,
			"count":5028,
			"type":"SCALAR"
		},
		{
			"bufferView":16,
			"componentType":5126,
			"count":3000,
			"max":[
				0.1173771321773529,
				0,
				-0.06092898175120354
			],
			"min":[
				0.09151008725166321,
				-0.019999999552965164,
				-0.093582384288311
			],
			"type":"VEC3"
		},
		{
			"bufferView":17,
			"componentType":5126,
			"count":3000,
			"type":"VEC3"
		},
		{
			"bufferView":18,
			"componentType":5126,
			"count":3000,
			"type":"VEC2"
		},
		{
			"bufferView":19,
			"componentType":5123,
			"count":5928,
			"type":"SCALAR"
		},
		{
			"bufferView":20,
			"componentType":5126,
			"count":3512,
			"max":[
				0.1769840121269226,
				0,
				-0.04757029563188553
			],
			"min":[
				0.11935772001743317,
				-0.019999999552965164,
				-0.10677077621221542
			],
			"type":"VEC3"
		},
		{
			"bufferView":21,
			"componentType":5126,
			"count":3512,
			"type":"VEC3"
		},
		{
			"bufferView":22,
			"componentType":5126,
			"count":3512,
			"type":"VEC2"
		},
		{
			"bufferView":23,
			"componentType":5123,
			"count":7080,
			"type":"SCALAR"
		},
		{
			"bufferView":24,
			"componentType":5126,
			"count":2439,
			"max":[
				0.05853857100009918,
				0,
				-0.013298663310706615
			],
			"min":[
				0.028198786079883575,
				-0.019999999552965164,
				-0.04527297616004944
			],
			"type":"VEC3"
		},
		{
			"bufferView":25,
			"componentType":5126,
			"count":2439,
			"type":"VEC3"
		},
		{
			"bufferView":26,
			"componentType":5126,
			"count":2439,
			"type":"VEC2"
		},
		{
			"bufferView":27,
			"componentType":5123,
			"count":4920,
			"type":"SCALAR"
		},
		{
			"bufferView":28,
			"componentType":5126,
			"count":2989,
			"max":[
				0.08655619621276855,
				0,
				-0.012618906795978546
			],
			"min":[
				0.06068917736411095,
				-0.019999999552965164,
				-0.045272305607795715
			],
			"type":"VEC3"
		},
		{
			"bufferView":29,
			"componentType":5126,
			"count":2989,
			"type":"VEC3"
		},
		{
			"bufferView":30,
			"componentType":5126,
			"count":2989,
			"type":"VEC2"
		},
		{
			"bufferView":31,
			"componentType":5123,
			"count":5928,
			"type":"SCALAR"
		},
		{
			"bufferView":32,
			"componentType":5126,
			"count":2995,
			"max":[
				0.02586701512336731,
				0,
				-0.01261865347623825
			],
			"min":[
				0,
				-0.019999999552965164,
				-0.04527239128947258
			],
			"type":"VEC3"
		},
		{
			"bufferView":33,
			"componentType":5126,
			"count":2995,
			"type":"VEC3"
		},
		{
			"bufferView":34,
			"componentType":5126,
			"count":2995,
			"type":"VEC2"
		},
		{
			"bufferView":35,
			"componentType":5123,
			"count":5928,
			"type":"SCALAR"
		},
		{
			"bufferView":36,
			"componentType":5126,
			"count":2994,
			"max":[
				0.11502642184495926,
				0,
				-0.012619048357009888
			],
			"min":[
				0.08915943652391434,
				-0.019999999552965164,
				-0.04527244716882706
			],
			"type":"VEC3"
		},
		{
			"bufferView":37,
			"componentType":5126,
			"count":2994,
			"type":"VEC3"
		},
		{
			"bufferView":38,
			"componentType":5126,
			"count":2994,
			"type":"VEC2"
		},
		{
			"bufferView":39,
			"componentType":5123,
			"count":5928,
			"type":"SCALAR"
		},
		{
			"bufferView":40,
			"componentType":5126,
			"count":1090,
			"max":[
				0.13579896092414856,
				0,
				-0.013356015086174011
			],
			"min":[
				0.11678063124418259,
				-0.019999999552965164,
				-0.04521561786532402
			],
			"type":"VEC3"
		},
		{
			"bufferView":41,
			"componentType":5126,
			"count":1090,
			"type":"VEC3"
		},
		{
			"bufferView":42,
			"componentType":5126,
			"count":1090,
			"type":"VEC2"
		},
		{
			"bufferView":43,
			"componentType":5123,
			"count":2328,
			"type":"SCALAR"
		},
		{
			"bufferView":44,
			"componentType":5126,
			"count":2473,
			"max":[
				0.16998645663261414,
				0,
				-0.012618988752365112
			],
			"min":[
				0.13732679188251495,
				-0.019999999552965164,
				-0.04527304321527481
			],
			"type":"VEC3"
		},
		{
			"bufferView":45,
			"componentType":5126,
			"count":2473,
			"type":"VEC3"
		},
		{
			"bufferView":46,
			"componentType":5126,
			"count":2473,
			"type":"VEC2"
		},
		{
			"bufferView":47,
			"componentType":5123,
			"count":4896,
			"type":"SCALAR"
		},
		{
			"bufferView":48,
			"componentType":5126,
			"count":2397,
			"max":[
				0.21187515556812286,
				0,
				-0.01335570216178894
			],
			"min":[
				0.17185752093791962,
				-0.019999999552965164,
				-0.04527207091450691
			],
			"type":"VEC3"
		},
		{
			"bufferView":49,
			"componentType":5126,
			"count":2397,
			"type":"VEC3"
		},
		{
			"bufferView":50,
			"componentType":5126,
			"count":2397,
			"type":"VEC2"
		},
		{
			"bufferView":51,
			"componentType":5123,
			"count":5088,
			"type":"SCALAR"
		},
		{
			"bufferView":52,
			"componentType":5126,
			"count":4841,
			"max":[
				0.2386472523212433,
				0,
				-1.1175870895385742e-07
			],
			"min":[
				0.18173368275165558,
				-0.019999999552965164,
				-0.04527236521244049
			],
			"type":"VEC3"
		},
		{
			"bufferView":53,
			"componentType":5126,
			"count":4841,
			"type":"VEC3"
		},
		{
			"bufferView":54,
			"componentType":5126,
			"count":4841,
			"type":"VEC2"
		},
		{
			"bufferView":55,
			"componentType":5123,
			"count":9516,
			"type":"SCALAR"
		},
		{
			"bufferView":56,
			"componentType":5126,
			"count":1111,
			"max":[
				0.2438448965549469,
				0,
				-0.06041555106639862
			],
			"min":[
				0.22052496671676636,
				-0.019999999552965164,
				-0.10082076489925385
			],
			"type":"VEC3"
		},
		{
			"bufferView":57,
			"componentType":5126,
			"count":1111,
			"type":"VEC3"
		},
		{
			"bufferView":58,
			"componentType":5126,
			"count":1111,
			"type":"VEC2"
		},
		{
			"bufferView":59,
			"componentType":5123,
			"count":2232,
			"type":"SCALAR"
		}
	],
	"bufferViews":[
		{
			"buffer":0,
			"byteLength":27264,
			"byteOffset":0,
			"target":34962
		},
		{
			"buffer":0,
			"byteLength":27264,
			"byteOffset":27264,
			"target":34962
		},
		{
			"buffer":0,
			"byteLength":18176,
			"byteOffset":54528,
			"target":34962
		},
		{
			"buffer":0,
			"byteLength":8928,
			"byteOffset":72704,
			"target":34963
		},
		{
			"buffer":0,
			"byteLength":29328,
			"byteOffset":81632,
			"target":34962
		},
		{
			"buffer":0,
			"byteLength":29328,
			"byteOffset":110960,
			"target":34962
		},
		{
			"buffer":0,
			"byteLength":19552,
			"byteOffset":140288,
			"target":34962
		},
		{
			"buffer":0,
			"byteLength":9840,
			"byteOffset":159840,
			"target":34963
		},
		{
			"buffer":0,
			"byteLength":25872,
			"byteOffset":169680,
			"target":34962
		},
		{
			"buffer":0,
			"byteLength":25872,
			"byteOffset":195552,
			"target":34962
		},
		{
			"buffer":0,
			"byteLength":17248,
			"byteOffset":221424,
			"target":34962
		},
		{
			"buffer":0,
			"byteLength":8640,
			"byteOffset":238672,
			"target":34963
		},
		{
			"buffer":0,
			"byteLength":30420,
			"byteOffset":247312,
			"target":34962
		},
		{
			"buffer":0,
			"byteLength":30420,
			"byteOffset":277732,
			"target":34962
		},
		{
			"buffer":0,
			"byteLength":20280,
			"byteOffset":308152,
			"target":34962
		},
		{
			"buffer":0,
			"byteLength":10056,
			"byteOffset":328432,
			"target":34963
		},
		{
			"buffer":0,
			"byteLength":36000,
			"byteOffset":338488,
			"target":34962
		},
		{
			"buffer":0,
			"byteLength":36000,
			"byteOffset":374488,
			"target":34962
		},
		{
			"buffer":0,
			"byteLength":24000,
			"byteOffset":410488,
			"target":34962
		},
		{
			"buffer":0,
			"byteLength":11856,
			"byteOffset":434488,
			"target":34963
		},
		{
			"buffer":0,
			"byteLength":42144,
			"byteOffset":446344,
			"target":34962
		},
		{
			"buffer":0,
			"byteLength":42144,
			"byteOffset":488488,
			"target":34962
		},
		{
			"buffer":0,
			"byteLength":28096,
			"byteOffset":530632,
			"target":34962
		},
		{
			"buffer":0,
			"byteLength":14160,
			"byteOffset":558728,
			"target":34963
		},
		{
			"buffer":0,
			"byteLength":29268,
			"byteOffset":572888,
			"target":34962
		},
		{
			"buffer":0,
			"byteLength":29268,
			"byteOffset":602156,
			"target":34962
		},
		{
			"buffer":0,
			"byteLength":19512,
			"byteOffset":631424,
			"target":34962
		},
		{
			"buffer":0,
			"byteLength":9840,
			"byteOffset":650936,
			"target":34963
		},
		{
			"buffer":0,
			"byteLength":35868,
			"byteOffset":660776,
			"target":34962
		},
		{
			"buffer":0,
			"byteLength":35868,
			"byteOffset":696644,
			"target":34962
		},
		{
			"buffer":0,
			"byteLength":23912,
			"byteOffset":732512,
			"target":34962
		},
		{
			"buffer":0,
			"byteLength":11856,
			"byteOffset":756424,
			"target":34963
		},
		{
			"buffer":0,
			"byteLength":35940,
			"byteOffset":768280,
			"target":34962
		},
		{
			"buffer":0,
			"byteLength":35940,
			"byteOffset":804220,
			"target":34962
		},
		{
			"buffer":0,
			"byteLength":23960,
			"byteOffset":840160,
			"target":34962
		},
		{
			"buffer":0,
			"byteLength":11856,
			"byteOffset":864120,
			"target":34963
		},
		{
			"buffer":0,
			"byteLength":35928,
			"byteOffset":875976,
			"target":34962
		},
		{
			"buffer":0,
			"byteLength":35928,
			"byteOffset":911904,
			"target":34962
		},
		{
			"buffer":0,
			"byteLength":23952,
			"byteOffset":947832,
			"target":34962
		},
		{
			"buffer":0,
			"byteLength":11856,
			"byteOffset":971784,
			"target":34963
		},
		{
			"buffer":0,
			"byteLength":13080,
			"byteOffset":983640,
			"target":34962
		},
		{
			"buffer":0,
			"byteLength":13080,
			"byteOffset":996720,
			"target":34962
		},
		{
			"buffer":0,
			"byteLength":8720,
			"byteOffset":1009800,
			"target":34962
		},
		{
			"buffer":0,
			"byteLength":4656,
			"byteOffset":1018520,
			"target":34963
		},
		{
			"buffer":0,
			"byteLength":29676,
			"byteOffset":1023176,
			"target":34962
		},
		{
			"buffer":0,
			"byteLength":29676,
			"byteOffset":1052852,
			"target":34962
		},
		{
			"buffer":0,
			"byteLength":19784,
			"byteOffset":1082528,
			"target":34962
		},
		{
			"buffer":0,
			"byteLength":9792,
			"byteOffset":1102312,
			"target":34963
		},
		{
			"buffer":0,
			"byteLength":28764,
			"byteOffset":1112104,
			"target":34962
		},
		{
			"buffer":0,
			"byteLength":28764,
			"byteOffset":1140868,
			"target":34962
		},
		{
			"buffer":0,
			"byteLength":19176,
			"byteOffset":1169632,
			"target":34962
		},
		{
			"buffer":0,
			"byteLength":10176,
			"byteOffset":1188808,
			"target":34963
		},
		{
			"buffer":0,
			"byteLength":58092,
			"byteOffset":1198984,
			"target":34962
		},
		{
			"buffer":0,
			"byteLength":58092,
			"byteOffset":1257076,
			"target":34962
		},
		{
			"buffer":0,
			"byteLength":38728,
			"byteOffset":1315168,
			"target":34962
		},
		{
			"buffer":0,
			"byteLength":19032,
			"byteOffset":1353896,
			"target":34963
		},
		{
			"buffer":0,
			"byteLength":13332,
			"byteOffset":1372928,
			"target":34962
		},
		{
			"buffer":0,
			"byteLength":13332,
			"byteOffset":1386260,
			"target":34962
		},
		{
			"buffer":0,
			"byteLength":8888,
			"byteOffset":1399592,
			"target":34962
		},
		{
			"buffer":0,
			"byteLength":4464,
			"byteOffset":1408480,
			"target":34963
		}
	],
	"buffers":[
		{
			"byteLength":1412944,
			"uri":"cjs_title_4.bin"
		}
	]
}
